<svg xmlns="http://www.w3.org/2000/svg" viewBox="0 0 512 512">
  <defs>
    <!-- Background gradient -->
    <linearGradient id="bg" x1="0%" y1="0%" x2="100%" y2="100%">
      <stop offset="0%" style="stop-color:#2563eb"/>
      <stop offset="100%" style="stop-color:#7c3aed"/>
    </linearGradient>
    
    <!-- Accent gradient -->
    <linearGradient id="accent" x1="0%" y1="0%" x2="100%" y2="100%">
      <stop offset="0%" style="stop-color:#fbbf24"/>
      <stop offset="100%" style="stop-color:#f59e0b"/>
    </linearGradient>
  </defs>
  
  <!-- Background -->
  <rect width="512" height="512" rx="115" fill="url(#bg)"/>
  
  <!-- Mini Business Model Canvas (simplified 9-block grid) -->
  <g transform="translate(256, 256)">
    <!-- Container background -->
    <rect x="-150" y="-150" width="300" height="300" rx="24" fill="white" opacity="0.12"/>
    
    <!-- 9 blocks representing Business Model Canvas -->
    <!-- ROW 1 -->
    <rect x="-135" y="-135" width="80" height="80" rx="12" fill="white" opacity="0.25"/>
    <rect x="-45" y="-135" width="80" height="80" rx="12" fill="white" opacity="0.3"/>
    <rect x="45" y="-135" width="80" height="80" rx="12" fill="white" opacity="0.25"/>
    
    <!-- ROW 2 (middle - most important) -->
    <rect x="-135" y="-45" width="80" height="80" rx="12" fill="white" opacity="0.3"/>
    <!-- CENTER BLOCK - Value Proposition (main focus) -->
    <rect x="-45" y="-45" width="80" height="80" rx="12" fill="white" opacity="0.95"/>
    <rect x="45" y="-45" width="80" height="80" rx="12" fill="white" opacity="0.3"/>
    
    <!-- ROW 3 -->
    <rect x="-135" y="45" width="80" height="80" rx="12" fill="white" opacity="0.25"/>
    <rect x="-45" y="45" width="80" height="80" rx="12" fill="white" opacity="0.3"/>
    <rect x="45" y="45" width="80" height="80" rx="12" fill="white" opacity="0.25"/>
    
    <!-- Growth icon in center (lightbulb/idea) -->
    <g transform="translate(-5, -5)">
      <!-- Lightbulb outline -->
      <ellipse cx="0" cy="-10" rx="20" ry="24" fill="url(#accent)" opacity="0.9"/>
      <!-- Lightbulb glow -->
      <ellipse cx="0" cy="-12" rx="14" ry="16" fill="#fff" opacity="0.7"/>
      <!-- Base -->
      <rect x="-8" y="8" width="16" height="8" rx="2" fill="url(#accent)" opacity="0.9"/>
      <!-- Shine lines -->
      <line x1="-28" y1="-10" x2="-35" y2="-10" stroke="#fff" stroke-width="3" opacity="0.6"/>
      <line x1="28" y1="-10" x2="35" y2="-10" stroke="#fff" stroke-width="3" opacity="0.6"/>
      <line x1="-20" y1="-28" x2="-25" y2="-33" stroke="#fff" stroke-width="3" opacity="0.6"/>
      <line x1="20" y1="-28" x2="25" y2="-33" stroke="#fff" stroke-width="3" opacity="0.6"/>
    </g>
  </g>
  
  <!-- Sparkle accent (top-right corner) -->
  <g transform="translate(410, 102)">
    <circle r="6" fill="url(#accent)" opacity="0.8"/>
    <circle r="3" fill="#fff" opacity="0.9"/>
  </g>
  
  <!-- Sparkle accent (bottom-left corner) -->
  <g transform="translate(102, 410)">
    <circle r="5" fill="url(#accent)" opacity="0.6"/>
  </g>
</svg>
